<?xml version="1.0" standalone="no"?>
<!DOCTYPE svg PUBLIC "-//W3C//DTD SVG 20010904//EN"
 "http://www.w3.org/TR/2001/REC-SVG-20010904/DTD/svg10.dtd">
<svg version="1.0" xmlns="http://www.w3.org/2000/svg"
 width="800.000000pt" height="800.000000pt" viewBox="0 0 800.000000 800.000000"
 preserveAspectRatio="xMidYMid meet">

<g transform="translate(0.000000,800.000000) scale(0.100000,-0.100000)"
fill="#000000" stroke="none">
<path d="M0 4000 l0 -4000 4000 0 4000 0 0 4000 0 4000 -4000 0 -4000 0 0
-4000z m6330 2965 c80 -8 151 -17 158 -20 9 -3 12 -107 12 -475 l0 -470 -313
0 c-230 0 -343 -4 -427 -16 -106 -14 -120 -19 -177 -57 -56 -39 -64 -48 -88
-112 -37 -96 -44 -203 -44 -652 l-1 -373 525 0 525 0 0 -22 c1 -52 -41 -906
-46 -935 l-5 -33 -524 0 -525 0 0 -1400 0 -1400 -520 0 -520 0 0 1400 0 1400
-375 0 -375 0 0 495 0 495 375 0 375 0 0 438 0 437 41 254 42 253 131 214 132
213 225 145 226 144 299 50 299 51 215 -4 c118 -2 280 -11 360 -20z"/>
</g>
</svg>
