<?xml version="1.0" standalone="no"?>
<!DOCTYPE svg PUBLIC "-//W3C//DTD SVG 20010904//EN"
 "http://www.w3.org/TR/2001/REC-SVG-20010904/DTD/svg10.dtd">
<svg version="1.0" xmlns="http://www.w3.org/2000/svg"
 width="800.000000pt" height="800.000000pt" viewBox="0 0 800.000000 800.000000"
 preserveAspectRatio="xMidYMid meet">

<g transform="translate(0.000000,800.000000) scale(0.100000,-0.100000)"
fill="#000000" stroke="none">
<path d="M0 4000 l0 -4000 4000 0 4000 0 0 4000 0 4000 -4000 0 -4000 0 0
-4000z m4230 2526 c-8 -8 -84 -73 -168 -145 l-153 -131 -257 0 -257 0 122 -68
c120 -65 125 -69 208 -172 76 -94 90 -117 139 -240 48 -121 55 -150 71 -279
17 -137 17 -150 0 -269 -15 -112 -23 -137 -70 -236 -84 -177 -144 -245 -475
-540 -60 -54 -129 -141 -152 -192 -69 -154 -21 -290 171 -487 42 -43 105 -102
141 -130 35 -29 120 -100 188 -159 155 -134 274 -287 322 -412 58 -152 68
-191 80 -336 l12 -145 -46 -185 c-26 -102 -51 -196 -56 -208 -6 -13 -75 -104
-154 -201 l-144 -177 -241 -132 -242 -133 -331 -51 -331 -51 -305 31 -305 32
-256 91 -256 90 -174 142 -175 142 -64 184 c-63 179 -65 186 -53 230 6 25 32
123 57 217 l46 171 162 184 161 184 245 127 245 126 300 46 c247 38 324 46
438 46 l138 0 -29 43 c-107 158 -161 282 -169 392 -4 70 -2 89 22 155 15 41
38 96 51 123 l24 47 -82 0 c-55 0 -163 14 -318 42 l-235 42 -189 120 c-209
134 -183 107 -357 366 l-84 125 -44 225 -44 226 53 204 c29 113 58 214 63 225
6 11 75 99 154 195 l143 175 212 125 212 125 235 46 236 47 790 1 c677 1 787
-1 775 -13z m1720 -536 l0 -500 525 0 525 0 0 -120 0 -120 -525 0 -525 0 0
-500 0 -500 -120 0 -120 0 0 500 0 500 -500 0 -500 0 0 120 0 120 500 0 500 0
0 500 0 500 120 0 120 0 0 -500z"/>
<path d="M2367 6261 l-137 -36 -98 -98 -99 -98 -56 -142 -57 -142 -9 -175 -8
-175 49 -189 c26 -104 58 -205 70 -225 149 -243 172 -272 310 -383 l132 -108
145 -48 146 -49 138 36 137 36 98 98 97 97 57 152 58 153 9 190 8 189 -49 181
-49 180 -97 150 c-94 144 -103 154 -212 243 -63 52 -125 100 -136 108 -12 8
-87 32 -166 53 l-144 38 -137 -36z"/>
<path d="M2480 3316 l-215 -33 -184 -86 -185 -86 -123 -123 -124 -124 -45
-149 c-25 -83 -46 -157 -46 -165 -1 -8 16 -85 36 -171 l38 -156 111 -137 112
-137 167 -93 167 -94 208 -35 208 -34 270 31 270 31 177 85 177 84 98 125 97
126 28 135 c16 74 31 178 34 230 l6 95 -41 95 c-35 80 -53 107 -114 168 -84
85 -205 173 -402 290 -77 46 -147 90 -156 98 -31 28 -140 53 -248 58 -87 4
-144 -1 -321 -28z"/>
</g>
</svg>
