<?xml version="1.0" standalone="no"?>
<!DOCTYPE svg PUBLIC "-//W3C//DTD SVG 20010904//EN"
 "http://www.w3.org/TR/2001/REC-SVG-20010904/DTD/svg10.dtd">
<svg version="1.0" xmlns="http://www.w3.org/2000/svg"
 width="800.000000pt" height="800.000000pt" viewBox="0 0 800.000000 800.000000"
 preserveAspectRatio="xMidYMid meet">

<g transform="translate(0.000000,800.000000) scale(0.100000,-0.100000)"
fill="#000000" stroke="none">
<path d="M0 4000 l0 -4000 4000 0 4000 0 0 4000 0 4000 -4000 0 -4000 0 0
-4000z m5292 2479 c227 -24 466 -133 666 -303 l97 -83 110 24 c61 13 153 37
205 54 88 29 292 112 315 129 6 4 45 26 87 48 88 48 86 57 25 -85 -75 -174
-243 -384 -394 -494 -46 -34 -82 -63 -79 -66 6 -6 136 20 286 57 119 29 245
70 339 109 l54 22 -15 -23 c-8 -13 -34 -57 -58 -98 -93 -162 -277 -368 -463
-520 l-67 -55 0 -85 c0 -65 -27 -228 -114 -696 l-113 -611 -339 -564 -339
-564 -547 -406 -546 -407 -748 -158 -748 -157 -251 17 c-230 16 -270 22 -502
72 -220 47 -281 65 -483 140 -188 70 -270 107 -437 197 l-206 112 179 6 c98 4
260 14 358 23 154 15 207 24 378 71 275 74 499 178 744 345 l172 116 -197 32
-197 31 -165 86 -164 86 -128 132 -129 132 -83 170 -83 170 196 6 c193 6 255
14 319 41 32 14 30 14 -165 87 l-197 74 -156 131 -156 131 -110 185 -109 185
-33 180 c-18 99 -35 193 -38 209 l-6 30 64 -36 c72 -40 192 -80 289 -96 84
-14 204 -22 193 -13 -4 4 -58 47 -119 95 -97 76 -124 104 -198 206 -74 104
-92 137 -140 262 -46 123 -56 162 -70 274 -9 72 -16 167 -16 210 0 160 54 388
118 496 l27 47 260 -253 260 -253 300 -188 300 -187 350 -128 350 -127 350
-52 c193 -29 358 -54 367 -57 20 -6 18 20 -13 157 -10 48 -19 104 -19 125 0
22 21 145 47 274 l47 235 133 200 134 200 196 130 196 130 226 46 c254 53 260
53 403 38z"/>
</g>
</svg>
